<mxfile host="app.diagrams.net" modified="2023-04-14T14:27:14.159Z" agent="Mozilla/5.0 (Windows NT 10.0; Win64; x64) AppleWebKit/537.36 (KHTML, like Gecko) Chrome/112.0.0.0 Safari/537.36" etag="luxBMxNgBkaXuFEqr5n6" version="21.1.7" type="device">
  <diagram name="PÃ¡gina-1" id="ZkmpgATiny-0FFApnRNF">
    <mxGraphModel dx="1195" dy="657" grid="1" gridSize="10" guides="1" tooltips="1" connect="1" arrows="1" fold="1" page="1" pageScale="1" pageWidth="827" pageHeight="1169" math="0" shadow="0">
      <root>
        <mxCell id="0" />
        <mxCell id="1" parent="0" />
        <mxCell id="N7Nwk6xlZyjJxe_G_Ynt-26" value="1" style="edgeStyle=orthogonalEdgeStyle;rounded=0;orthogonalLoop=1;jettySize=auto;html=1;exitX=0.5;exitY=0;exitDx=0;exitDy=0;entryX=0;entryY=0.5;entryDx=0;entryDy=0;endArrow=none;endFill=0;" edge="1" parent="1" source="N7Nwk6xlZyjJxe_G_Ynt-1" target="N7Nwk6xlZyjJxe_G_Ynt-21">
          <mxGeometry relative="1" as="geometry" />
        </mxCell>
        <mxCell id="N7Nwk6xlZyjJxe_G_Ynt-27" value="1" style="edgeStyle=orthogonalEdgeStyle;rounded=0;orthogonalLoop=1;jettySize=auto;html=1;exitX=1;exitY=0.5;exitDx=0;exitDy=0;entryX=0;entryY=0.5;entryDx=0;entryDy=0;endArrow=none;endFill=0;" edge="1" parent="1" source="N7Nwk6xlZyjJxe_G_Ynt-1" target="N7Nwk6xlZyjJxe_G_Ynt-22">
          <mxGeometry relative="1" as="geometry" />
        </mxCell>
        <mxCell id="N7Nwk6xlZyjJxe_G_Ynt-1" value="Colaborador" style="whiteSpace=wrap;html=1;align=center;fillColor=#fff2cc;strokeColor=#d6b656;fontStyle=1" vertex="1" parent="1">
          <mxGeometry x="118" y="340" width="100" height="40" as="geometry" />
        </mxCell>
        <mxCell id="N7Nwk6xlZyjJxe_G_Ynt-31" value="1" style="edgeStyle=orthogonalEdgeStyle;rounded=0;orthogonalLoop=1;jettySize=auto;html=1;exitX=1;exitY=0.5;exitDx=0;exitDy=0;entryX=0;entryY=0.5;entryDx=0;entryDy=0;endArrow=none;endFill=0;" edge="1" parent="1" source="N7Nwk6xlZyjJxe_G_Ynt-2" target="N7Nwk6xlZyjJxe_G_Ynt-30">
          <mxGeometry relative="1" as="geometry" />
        </mxCell>
        <mxCell id="N7Nwk6xlZyjJxe_G_Ynt-2" value="O.S." style="whiteSpace=wrap;html=1;align=center;fillColor=#fff2cc;strokeColor=#d6b656;fontStyle=1" vertex="1" parent="1">
          <mxGeometry x="361.5" y="340" width="100" height="40" as="geometry" />
        </mxCell>
        <mxCell id="N7Nwk6xlZyjJxe_G_Ynt-45" style="rounded=0;orthogonalLoop=1;jettySize=auto;html=1;exitX=1;exitY=0.5;exitDx=0;exitDy=0;entryX=0;entryY=0.5;entryDx=0;entryDy=0;endArrow=none;endFill=0;" edge="1" parent="1" source="N7Nwk6xlZyjJxe_G_Ynt-3" target="N7Nwk6xlZyjJxe_G_Ynt-11">
          <mxGeometry relative="1" as="geometry" />
        </mxCell>
        <mxCell id="N7Nwk6xlZyjJxe_G_Ynt-46" style="rounded=0;orthogonalLoop=1;jettySize=auto;html=1;exitX=0.5;exitY=0;exitDx=0;exitDy=0;entryX=0.5;entryY=1;entryDx=0;entryDy=0;endArrow=none;endFill=0;" edge="1" parent="1" source="N7Nwk6xlZyjJxe_G_Ynt-3" target="N7Nwk6xlZyjJxe_G_Ynt-12">
          <mxGeometry relative="1" as="geometry" />
        </mxCell>
        <mxCell id="N7Nwk6xlZyjJxe_G_Ynt-3" value="Comentario" style="whiteSpace=wrap;html=1;align=center;fillColor=#fff2cc;strokeColor=#d6b656;fontStyle=1" vertex="1" parent="1">
          <mxGeometry x="590" y="340" width="100" height="40" as="geometry" />
        </mxCell>
        <mxCell id="N7Nwk6xlZyjJxe_G_Ynt-43" style="rounded=0;orthogonalLoop=1;jettySize=auto;html=1;exitX=0.5;exitY=1;exitDx=0;exitDy=0;entryX=0.25;entryY=0;entryDx=0;entryDy=0;endArrow=none;endFill=0;" edge="1" parent="1" source="N7Nwk6xlZyjJxe_G_Ynt-4" target="N7Nwk6xlZyjJxe_G_Ynt-1">
          <mxGeometry relative="1" as="geometry" />
        </mxCell>
        <mxCell id="N7Nwk6xlZyjJxe_G_Ynt-4" value="nome" style="ellipse;whiteSpace=wrap;html=1;align=center;fillColor=#f9f7ed;strokeColor=#36393d;" vertex="1" parent="1">
          <mxGeometry x="30" y="285" width="80" height="30" as="geometry" />
        </mxCell>
        <mxCell id="N7Nwk6xlZyjJxe_G_Ynt-44" style="rounded=0;orthogonalLoop=1;jettySize=auto;html=1;exitX=0.5;exitY=1;exitDx=0;exitDy=0;endArrow=none;endFill=0;" edge="1" parent="1" source="N7Nwk6xlZyjJxe_G_Ynt-5" target="N7Nwk6xlZyjJxe_G_Ynt-1">
          <mxGeometry relative="1" as="geometry" />
        </mxCell>
        <mxCell id="N7Nwk6xlZyjJxe_G_Ynt-5" value="matricula" style="ellipse;whiteSpace=wrap;html=1;align=center;fontStyle=4;fillColor=#f9f7ed;strokeColor=#36393d;" vertex="1" parent="1">
          <mxGeometry x="70" y="240" width="90" height="30" as="geometry" />
        </mxCell>
        <mxCell id="N7Nwk6xlZyjJxe_G_Ynt-42" style="rounded=0;orthogonalLoop=1;jettySize=auto;html=1;exitX=0.5;exitY=0;exitDx=0;exitDy=0;entryX=0;entryY=0.5;entryDx=0;entryDy=0;endArrow=none;endFill=0;" edge="1" parent="1" source="N7Nwk6xlZyjJxe_G_Ynt-6" target="N7Nwk6xlZyjJxe_G_Ynt-1">
          <mxGeometry relative="1" as="geometry" />
        </mxCell>
        <mxCell id="N7Nwk6xlZyjJxe_G_Ynt-6" value="cargo" style="ellipse;whiteSpace=wrap;html=1;align=center;fillColor=#f9f7ed;strokeColor=#36393d;" vertex="1" parent="1">
          <mxGeometry x="20" y="380" width="80" height="30" as="geometry" />
        </mxCell>
        <mxCell id="N7Nwk6xlZyjJxe_G_Ynt-38" style="rounded=0;orthogonalLoop=1;jettySize=auto;html=1;exitX=0.5;exitY=0;exitDx=0;exitDy=0;entryX=0.5;entryY=1;entryDx=0;entryDy=0;endArrow=none;endFill=0;strokeColor=none;" edge="1" parent="1" source="N7Nwk6xlZyjJxe_G_Ynt-7" target="N7Nwk6xlZyjJxe_G_Ynt-1">
          <mxGeometry relative="1" as="geometry" />
        </mxCell>
        <mxCell id="N7Nwk6xlZyjJxe_G_Ynt-40" style="rounded=0;orthogonalLoop=1;jettySize=auto;html=1;exitX=0.5;exitY=0;exitDx=0;exitDy=0;entryX=0.5;entryY=1;entryDx=0;entryDy=0;endArrow=none;endFill=0;" edge="1" parent="1" source="N7Nwk6xlZyjJxe_G_Ynt-7" target="N7Nwk6xlZyjJxe_G_Ynt-1">
          <mxGeometry relative="1" as="geometry" />
        </mxCell>
        <mxCell id="N7Nwk6xlZyjJxe_G_Ynt-7" value="setor" style="ellipse;whiteSpace=wrap;html=1;align=center;fillColor=#f9f7ed;strokeColor=#36393d;" vertex="1" parent="1">
          <mxGeometry x="38" y="440" width="80" height="30" as="geometry" />
        </mxCell>
        <mxCell id="N7Nwk6xlZyjJxe_G_Ynt-41" style="rounded=0;orthogonalLoop=1;jettySize=auto;html=1;exitX=0.5;exitY=0;exitDx=0;exitDy=0;entryX=0.5;entryY=1;entryDx=0;entryDy=0;endArrow=none;endFill=0;" edge="1" parent="1" source="N7Nwk6xlZyjJxe_G_Ynt-8" target="N7Nwk6xlZyjJxe_G_Ynt-1">
          <mxGeometry relative="1" as="geometry" />
        </mxCell>
        <mxCell id="N7Nwk6xlZyjJxe_G_Ynt-8" value="pin" style="ellipse;whiteSpace=wrap;html=1;align=center;fillColor=#f9f7ed;strokeColor=#36393d;" vertex="1" parent="1">
          <mxGeometry x="80" y="490" width="80" height="30" as="geometry" />
        </mxCell>
        <mxCell id="N7Nwk6xlZyjJxe_G_Ynt-48" style="rounded=0;orthogonalLoop=1;jettySize=auto;html=1;exitX=0.5;exitY=0;exitDx=0;exitDy=0;entryX=0.5;entryY=1;entryDx=0;entryDy=0;endArrow=none;endFill=0;" edge="1" parent="1" source="N7Nwk6xlZyjJxe_G_Ynt-9" target="N7Nwk6xlZyjJxe_G_Ynt-3">
          <mxGeometry relative="1" as="geometry" />
        </mxCell>
        <mxCell id="N7Nwk6xlZyjJxe_G_Ynt-9" value="colaborador" style="ellipse;whiteSpace=wrap;html=1;align=center;fillColor=#f9f7ed;strokeColor=#36393d;" vertex="1" parent="1">
          <mxGeometry x="678" y="430" width="80" height="30" as="geometry" />
        </mxCell>
        <mxCell id="N7Nwk6xlZyjJxe_G_Ynt-47" style="rounded=0;orthogonalLoop=1;jettySize=auto;html=1;exitX=0.5;exitY=1;exitDx=0;exitDy=0;endArrow=none;endFill=0;" edge="1" parent="1" source="N7Nwk6xlZyjJxe_G_Ynt-10" target="N7Nwk6xlZyjJxe_G_Ynt-3">
          <mxGeometry relative="1" as="geometry" />
        </mxCell>
        <mxCell id="N7Nwk6xlZyjJxe_G_Ynt-10" value="id" style="ellipse;whiteSpace=wrap;html=1;align=center;fontStyle=4;fillColor=#f9f7ed;strokeColor=#36393d;" vertex="1" parent="1">
          <mxGeometry x="595" y="270" width="90" height="30" as="geometry" />
        </mxCell>
        <mxCell id="N7Nwk6xlZyjJxe_G_Ynt-11" value="data" style="ellipse;whiteSpace=wrap;html=1;align=center;fillColor=#f9f7ed;strokeColor=#36393d;" vertex="1" parent="1">
          <mxGeometry x="720" y="345" width="80" height="30" as="geometry" />
        </mxCell>
        <mxCell id="N7Nwk6xlZyjJxe_G_Ynt-12" value="comentario" style="ellipse;whiteSpace=wrap;html=1;align=center;fillColor=#f9f7ed;strokeColor=#36393d;" vertex="1" parent="1">
          <mxGeometry x="690" y="275" width="80" height="30" as="geometry" />
        </mxCell>
        <mxCell id="N7Nwk6xlZyjJxe_G_Ynt-49" style="rounded=0;orthogonalLoop=1;jettySize=auto;html=1;exitX=0.5;exitY=1;exitDx=0;exitDy=0;entryX=0.5;entryY=0;entryDx=0;entryDy=0;endArrow=none;endFill=0;" edge="1" parent="1" source="N7Nwk6xlZyjJxe_G_Ynt-14" target="N7Nwk6xlZyjJxe_G_Ynt-2">
          <mxGeometry relative="1" as="geometry" />
        </mxCell>
        <mxCell id="N7Nwk6xlZyjJxe_G_Ynt-14" value="id" style="ellipse;whiteSpace=wrap;html=1;align=center;fontStyle=4;fillColor=#f9f7ed;strokeColor=#36393d;" vertex="1" parent="1">
          <mxGeometry x="400" y="215" width="90" height="30" as="geometry" />
        </mxCell>
        <mxCell id="N7Nwk6xlZyjJxe_G_Ynt-51" style="rounded=0;orthogonalLoop=1;jettySize=auto;html=1;exitX=0.5;exitY=1;exitDx=0;exitDy=0;entryX=1;entryY=0;entryDx=0;entryDy=0;endArrow=none;endFill=0;" edge="1" parent="1" source="N7Nwk6xlZyjJxe_G_Ynt-16" target="N7Nwk6xlZyjJxe_G_Ynt-2">
          <mxGeometry relative="1" as="geometry" />
        </mxCell>
        <mxCell id="N7Nwk6xlZyjJxe_G_Ynt-16" value="colaborador" style="ellipse;whiteSpace=wrap;html=1;align=center;fillColor=#f9f7ed;strokeColor=#36393d;" vertex="1" parent="1">
          <mxGeometry x="490" y="290" width="80" height="30" as="geometry" />
        </mxCell>
        <mxCell id="N7Nwk6xlZyjJxe_G_Ynt-54" style="rounded=0;orthogonalLoop=1;jettySize=auto;html=1;exitX=0.5;exitY=0;exitDx=0;exitDy=0;entryX=0.5;entryY=1;entryDx=0;entryDy=0;endArrow=none;endFill=0;" edge="1" parent="1" source="N7Nwk6xlZyjJxe_G_Ynt-17" target="N7Nwk6xlZyjJxe_G_Ynt-2">
          <mxGeometry relative="1" as="geometry" />
        </mxCell>
        <mxCell id="N7Nwk6xlZyjJxe_G_Ynt-17" value="executor" style="ellipse;whiteSpace=wrap;html=1;align=center;fillColor=#f9f7ed;strokeColor=#36393d;" vertex="1" parent="1">
          <mxGeometry x="270" y="400" width="80" height="30" as="geometry" />
        </mxCell>
        <mxCell id="N7Nwk6xlZyjJxe_G_Ynt-50" style="rounded=0;orthogonalLoop=1;jettySize=auto;html=1;exitX=0.5;exitY=1;exitDx=0;exitDy=0;entryX=0.75;entryY=0;entryDx=0;entryDy=0;endArrow=none;endFill=0;" edge="1" parent="1" source="N7Nwk6xlZyjJxe_G_Ynt-18" target="N7Nwk6xlZyjJxe_G_Ynt-2">
          <mxGeometry relative="1" as="geometry" />
        </mxCell>
        <mxCell id="N7Nwk6xlZyjJxe_G_Ynt-18" value="descricao" style="ellipse;whiteSpace=wrap;html=1;align=center;fillColor=#f9f7ed;strokeColor=#36393d;" vertex="1" parent="1">
          <mxGeometry x="461.5" y="245" width="80" height="30" as="geometry" />
        </mxCell>
        <mxCell id="N7Nwk6xlZyjJxe_G_Ynt-53" style="rounded=0;orthogonalLoop=1;jettySize=auto;html=1;exitX=0.5;exitY=0;exitDx=0;exitDy=0;entryX=0.5;entryY=1;entryDx=0;entryDy=0;endArrow=none;endFill=0;" edge="1" parent="1" source="N7Nwk6xlZyjJxe_G_Ynt-19" target="N7Nwk6xlZyjJxe_G_Ynt-2">
          <mxGeometry relative="1" as="geometry" />
        </mxCell>
        <mxCell id="N7Nwk6xlZyjJxe_G_Ynt-19" value="abertura" style="ellipse;whiteSpace=wrap;html=1;align=center;fillColor=#f9f7ed;strokeColor=#36393d;" vertex="1" parent="1">
          <mxGeometry x="371.5" y="410" width="80" height="30" as="geometry" />
        </mxCell>
        <mxCell id="N7Nwk6xlZyjJxe_G_Ynt-52" style="rounded=0;orthogonalLoop=1;jettySize=auto;html=1;exitX=0.5;exitY=0;exitDx=0;exitDy=0;endArrow=none;endFill=0;entryX=0.5;entryY=1;entryDx=0;entryDy=0;" edge="1" parent="1" source="N7Nwk6xlZyjJxe_G_Ynt-20" target="N7Nwk6xlZyjJxe_G_Ynt-2">
          <mxGeometry relative="1" as="geometry" />
        </mxCell>
        <mxCell id="N7Nwk6xlZyjJxe_G_Ynt-20" value="encerramento" style="ellipse;whiteSpace=wrap;html=1;align=center;fillColor=#f9f7ed;strokeColor=#36393d;" vertex="1" parent="1">
          <mxGeometry x="461.5" y="400" width="80" height="30" as="geometry" />
        </mxCell>
        <mxCell id="N7Nwk6xlZyjJxe_G_Ynt-29" value="N" style="edgeStyle=orthogonalEdgeStyle;rounded=0;orthogonalLoop=1;jettySize=auto;html=1;exitX=1;exitY=0.5;exitDx=0;exitDy=0;entryX=0.5;entryY=0;entryDx=0;entryDy=0;endArrow=none;endFill=0;" edge="1" parent="1" source="N7Nwk6xlZyjJxe_G_Ynt-21" target="N7Nwk6xlZyjJxe_G_Ynt-2">
          <mxGeometry relative="1" as="geometry" />
        </mxCell>
        <mxCell id="N7Nwk6xlZyjJxe_G_Ynt-21" value="abre" style="shape=rhombus;perimeter=rhombusPerimeter;whiteSpace=wrap;html=1;align=center;fillColor=#ffe6cc;strokeColor=#d79b00;" vertex="1" parent="1">
          <mxGeometry x="250" y="275" width="80" height="40" as="geometry" />
        </mxCell>
        <mxCell id="N7Nwk6xlZyjJxe_G_Ynt-28" value="N" style="edgeStyle=orthogonalEdgeStyle;rounded=0;orthogonalLoop=1;jettySize=auto;html=1;exitX=1;exitY=0.5;exitDx=0;exitDy=0;entryX=0;entryY=0.5;entryDx=0;entryDy=0;endArrow=none;endFill=0;" edge="1" parent="1" source="N7Nwk6xlZyjJxe_G_Ynt-22" target="N7Nwk6xlZyjJxe_G_Ynt-2">
          <mxGeometry relative="1" as="geometry" />
        </mxCell>
        <mxCell id="N7Nwk6xlZyjJxe_G_Ynt-22" value="executa" style="shape=rhombus;perimeter=rhombusPerimeter;whiteSpace=wrap;html=1;align=center;fillColor=#ffe6cc;strokeColor=#d79b00;" vertex="1" parent="1">
          <mxGeometry x="249" y="340" width="80" height="40" as="geometry" />
        </mxCell>
        <mxCell id="N7Nwk6xlZyjJxe_G_Ynt-24" value="1" style="edgeStyle=orthogonalEdgeStyle;rounded=0;orthogonalLoop=1;jettySize=auto;html=1;exitX=0;exitY=0.5;exitDx=0;exitDy=0;entryX=0.5;entryY=1;entryDx=0;entryDy=0;endArrow=none;endFill=0;" edge="1" parent="1" source="N7Nwk6xlZyjJxe_G_Ynt-23" target="N7Nwk6xlZyjJxe_G_Ynt-1">
          <mxGeometry relative="1" as="geometry" />
        </mxCell>
        <mxCell id="N7Nwk6xlZyjJxe_G_Ynt-25" value="N" style="edgeStyle=orthogonalEdgeStyle;rounded=0;orthogonalLoop=1;jettySize=auto;html=1;exitX=1;exitY=0.5;exitDx=0;exitDy=0;entryX=0.5;entryY=1;entryDx=0;entryDy=0;endArrow=none;endFill=0;" edge="1" parent="1" source="N7Nwk6xlZyjJxe_G_Ynt-23" target="N7Nwk6xlZyjJxe_G_Ynt-3">
          <mxGeometry relative="1" as="geometry" />
        </mxCell>
        <mxCell id="N7Nwk6xlZyjJxe_G_Ynt-23" value="faz" style="shape=rhombus;perimeter=rhombusPerimeter;whiteSpace=wrap;html=1;align=center;fillColor=#ffe6cc;strokeColor=#d79b00;" vertex="1" parent="1">
          <mxGeometry x="371.5" y="450" width="80" height="40" as="geometry" />
        </mxCell>
        <mxCell id="N7Nwk6xlZyjJxe_G_Ynt-32" value="N" style="edgeStyle=orthogonalEdgeStyle;rounded=0;orthogonalLoop=1;jettySize=auto;html=1;exitX=1;exitY=0.5;exitDx=0;exitDy=0;entryX=0;entryY=0.5;entryDx=0;entryDy=0;endArrow=none;endFill=0;" edge="1" parent="1" source="N7Nwk6xlZyjJxe_G_Ynt-30" target="N7Nwk6xlZyjJxe_G_Ynt-3">
          <mxGeometry relative="1" as="geometry" />
        </mxCell>
        <mxCell id="N7Nwk6xlZyjJxe_G_Ynt-30" value="possui" style="shape=rhombus;perimeter=rhombusPerimeter;whiteSpace=wrap;html=1;align=center;fillColor=#ffe6cc;strokeColor=#d79b00;" vertex="1" parent="1">
          <mxGeometry x="480" y="340" width="80" height="40" as="geometry" />
        </mxCell>
        <mxCell id="N7Nwk6xlZyjJxe_G_Ynt-55" value="MER DER Conceitual" style="text;html=1;strokeColor=none;fillColor=none;align=center;verticalAlign=middle;whiteSpace=wrap;rounded=0;" vertex="1" parent="1">
          <mxGeometry x="344.75" y="160" width="138.5" height="20" as="geometry" />
        </mxCell>
        <mxCell id="N7Nwk6xlZyjJxe_G_Ynt-56" value="Sistema de Ordens de ServiÃ§o" style="text;html=1;strokeColor=none;fillColor=none;align=center;verticalAlign=middle;whiteSpace=wrap;rounded=0;" vertex="1" parent="1">
          <mxGeometry x="319" y="140" width="190" height="20" as="geometry" />
        </mxCell>
      </root>
    </mxGraphModel>
  </diagram>
</mxfile>
